<?xml version="1.0" standalone="no"?>
<!DOCTYPE svg PUBLIC "-//W3C//DTD SVG 20010904//EN"
 "http://www.w3.org/TR/2001/REC-SVG-20010904/DTD/svg10.dtd">
<svg version="1.0" xmlns="http://www.w3.org/2000/svg"
 width="620.000000pt" height="620.000000pt" viewBox="0 0 620.000000 620.000000"
 preserveAspectRatio="xMidYMid meet">

<g transform="translate(0.000000,620.000000) scale(0.100000,-0.100000)"
fill="#000000" stroke="none">
<path d="M2745 5264 c-49 -19 -98 -41 -194 -88 -41 -20 -79 -36 -83 -36 -5 0
-107 -47 -228 -105 -121 -58 -222 -105 -225 -105 -4 0 -56 -25 -115 -55 -60
-30 -151 -71 -202 -91 -93 -36 -168 -71 -168 -78 0 -5 261 98 327 129 28 14
55 25 58 25 4 0 95 43 203 96 109 53 274 130 367 170 94 41 177 78 186 83 8 5
39 21 67 36 29 15 52 29 52 31 0 5 2 6 -45 -12z"/>
<path d="M1420 4650 c-8 -5 -10 -10 -5 -10 6 0 17 5 25 10 8 5 11 10 5 10 -5
0 -17 -5 -25 -10z"/>
<path d="M4450 4255 c-9 -10 -9 -15 -1 -15 6 0 11 4 11 9 0 5 10 12 23 14 21
4 21 4 1 6 -12 0 -27 -6 -34 -14z"/>
<path d="M4770 4170 c-19 -27 -20 -35 -10 -112 6 -46 13 -132 17 -193 5 -101
7 -108 19 -79 7 17 15 100 20 196 9 216 0 253 -46 188z"/>
<path d="M1784 3834 c3 -9 6 -19 6 -23 0 -16 63 -42 103 -43 26 0 64 -12 100
-30 32 -16 64 -27 70 -25 12 5 -89 57 -109 57 -7 0 -14 6 -17 14 -7 18 -105
66 -135 66 -18 0 -23 -4 -18 -16z"/>
<path d="M2102 3676 c-1 -20 4 -25 36 -31 20 -4 39 -10 42 -14 3 -5 25 -11 50
-15 34 -5 41 -4 30 5 -12 8 -8 9 15 5 28 -6 29 -5 12 8 -11 8 -25 12 -33 9 -8
-3 -14 0 -14 6 0 15 -58 43 -99 47 -32 3 -37 0 -39 -20z"/>
<path d="M2876 3681 c-39 -8 -44 -28 -10 -41 33 -13 86 -9 91 5 6 18 -50 42
-81 36z"/>
<path d="M2385 3590 c3 -5 10 -10 16 -10 5 0 9 5 9 10 0 6 -7 10 -16 10 -8 0
-12 -4 -9 -10z"/>
<path d="M2495 3536 c11 -8 27 -16 35 -16 20 0 1 16 -30 25 -24 7 -24 7 -5 -9z"/>
<path d="M4787 3503 c-9 -8 -7 -71 3 -103 6 -18 8 -7 9 43 1 67 0 73 -12 60z"/>
<path d="M3025 3394 c-11 -12 -14 -24 -9 -38 4 -12 8 -201 10 -421 1 -220 5
-440 8 -490 3 -49 8 -214 11 -365 6 -300 11 -372 26 -349 12 20 11 282 -2 479
-15 214 -17 403 -7 730 8 264 19 405 33 448 7 20 4 22 -23 22 -17 0 -38 -7
-47 -16z"/>
<path d="M4781 2503 c0 -21 4 -47 9 -58 6 -14 9 -4 9 38 1 32 -3 57 -9 57 -5
0 -10 -17 -9 -37z"/>
<path d="M4669 2308 c0 -18 -3 -42 -5 -53 -11 -51 -25 -164 -25 -197 0 -21 -4
-38 -10 -38 -6 0 -7 -4 -4 -10 3 -5 0 -10 -8 -10 -8 0 -17 -6 -20 -14 -8 -20
-125 -74 -292 -136 -147 -53 -158 -58 -215 -82 -20 -9 -67 -28 -105 -43 -39
-14 -95 -37 -125 -49 -30 -13 -86 -33 -125 -46 -38 -12 -89 -31 -112 -41 -23
-10 -84 -31 -135 -45 -51 -14 -136 -39 -188 -54 -52 -16 -110 -31 -127 -35
-20 -4 -33 -13 -33 -22 0 -19 48 -14 140 17 36 12 146 48 245 80 99 32 227 79
285 103 58 24 186 74 285 111 355 135 511 199 574 237 36 22 75 39 88 39 14 0
23 6 23 15 0 19 -29 19 -55 2 -11 -8 -31 -17 -44 -20 -22 -5 -23 -4 -17 36 3
23 8 74 11 112 3 39 8 94 11 123 4 34 2 52 -5 52 -6 0 -11 -15 -12 -32z"/>
<path d="M1022 2107 c-19 -20 -20 -28 -12 -59 13 -46 33 -62 66 -54 25 7 26
10 20 49 -4 23 -13 47 -21 53 -8 6 -15 16 -15 23 0 17 -15 13 -38 -12z"/>
<path d="M900 1926 c0 -18 56 -66 77 -66 11 0 5 12 -18 39 -35 41 -59 51 -59
27z"/>
<path d="M1446 1883 c-15 -37 -5 -50 52 -76 54 -23 159 -58 282 -94 30 -8 86
-27 123 -40 37 -14 77 -23 87 -20 11 3 18 0 17 -5 -1 -6 5 -12 13 -13 34 -8
128 -35 169 -49 24 -9 52 -16 63 -16 10 0 33 -8 51 -17 18 -9 47 -18 65 -20
18 -2 52 -10 75 -17 50 -17 368 -76 406 -76 20 0 12 48 -9 55 -11 3 -20 10
-20 15 0 6 -10 5 -23 -1 -17 -8 -42 -6 -98 6 -41 9 -99 21 -129 26 -30 5 -129
34 -220 64 -139 47 -388 124 -405 126 -6 1 -265 91 -335 117 -30 11 -78 27
-107 35 -46 14 -52 14 -57 0z"/>
</g>
</svg>
